# xmcd
#
# Track frame offsets:
#	150
#	3905
#	22117
#	43811
#	62345
#	83059
#	103469
#	127551
#	154513
#	175029
#	192683
#	212086
#	252417
#	293989
#
# Disc length: 4134 seconds
#
# Revision: 1
# Processed by: cddbd v1.4PL0 Copyright (c) Steve Scherf et al.
# Submitted via: audiograbber 1.81.03
#
DISCID=bd10240e
DTITLE=Enrique Bumbury - Pequeño Cabaret Ambulante
DYEAR=2000
DGENRE=Pop
TTITLE0=Intro
TTITLE1=Infinito
TTITLE2=De mayor
TTITLE3=El extranjero
TTITLE4=Solo si me perdonas
TTITLE5=Big Bang
TTITLE6=Salomé
TTITLE7=¿Dudar?, Quizás
TTITLE8=Alicia (expulsada a Isla Mujeres)
TTITLE9=Apuesta por el Rocanrol
TTITLE10=El Viento a Favor
TTITLE11=Demasiado Tarde
TTITLE12=El Jinete
TTITLE13=Confesion
EXTD=
EXTT0=
EXTT1=
EXTT2=
EXTT3=
EXTT4=
EXTT5=
EXTT6=
EXTT7=
EXTT8=
EXTT9=
EXTT10=
EXTT11=
EXTT12=
EXTT13=
PLAYORDER=
